<svg xmlns="http://www.w3.org/2000/svg" xmlns:xlink="http://www.w3.org/1999/xlink" width="216" height="216" viewBox="0 0 216 216"><defs><style>.a,.b,.f{fill:#fff;}.a{stroke:#707070;}.c{clip-path:url(#c);}.d{fill:#eceff1;}.e{fill:rgba(148,155,159,0.43);}.f{opacity:0.33;}.g{filter:url(#a);}</style><filter id="a" x="0" y="0" width="216" height="216" filterUnits="userSpaceOnUse"><feOffset dy="3" input="SourceAlpha"/><feGaussianBlur stdDeviation="5" result="b"/><feFlood flood-opacity="0.161"/><feComposite operator="in" in2="b"/><feComposite in="SourceGraphic"/></filter><clipPath id="c"><circle class="a" cx="88" cy="88" r="88" transform="translate(-0.496 -0.496)"/></clipPath></defs><g transform="translate(-852 -343)"><g transform="translate(-11.187 -11.187)"><g transform="translate(878 366)"><g class="g" transform="matrix(1, 0, 0, 1, -14.81, -11.81)"><circle class="b" cx="93" cy="93" r="93" transform="translate(15 12)"/></g></g><g transform="translate(883.682 371.682)"><circle class="d" cx="88" cy="88" r="88" transform="translate(-0.496 -0.496)"/><path class="e" d="M192.783,180.514a32.4,32.4,0,0,0-13.443-6.209l-23.929-4.8a5.4,5.4,0,0,1-4.321-5.347v-5.489a65.569,65.569,0,0,0,4.506-8.031c1.178-2.324,2.957-5.827,3.841-6.732,4.845-4.867,9.526-10.333,10.977-17.382,1.353-6.612.022-10.082-1.539-12.876,0-6.972-.218-15.7-1.866-22.052-.2-8.6-1.757-13.432-5.685-17.666-2.772-3-6.852-3.7-10.137-4.256a17.713,17.713,0,0,1-3.721-.873,38.507,38.507,0,0,0-18.43-4.8c-14.371.589-32.036,9.733-37.95,26.035C89.254,95,89.44,103.151,89.592,109.7l-.142,3.939c-1.408,2.75-2.793,6.241-1.429,12.876,1.44,7.06,6.121,12.537,11.053,17.469.807.829,2.63,4.365,3.83,6.7a67.817,67.817,0,0,0,4.539,8v5.489a5.422,5.422,0,0,1-4.343,5.347l-23.951,4.8a32.471,32.471,0,0,0-13.4,6.2,5.468,5.468,0,0,0-.644,7.944,86.87,86.87,0,0,0,128.32,0,5.466,5.466,0,0,0-.644-7.944Z" transform="translate(-41.763 -41.965)"/></g></g><circle class="f" cx="88" cy="88" r="88" transform="translate(872 360)"/></g></svg>